<svg width="33" height="33" viewBox="0 0 33 33" fill="none" xmlns="http://www.w3.org/2000/svg">
<g clip-path="url(#clip0_2_3369)">
<path d="M32.5 16.5973C32.5 24.5827 26.6413 31.2027 18.9933 32.404V21.2533H22.712L23.42 16.64H18.9933V13.6467C18.9933 12.384 19.612 11.1547 21.5933 11.1547H23.6053V7.22665C23.6053 7.22665 21.7787 6.91465 20.0333 6.91465C16.388 6.91465 14.0067 9.12399 14.0067 13.1227V16.6387H9.95467V21.252H14.0067V32.4027C6.36 31.2 0.5 24.5813 0.5 16.5973C0.5 7.76132 7.664 0.597321 16.5 0.597321C25.336 0.597321 32.5 7.75999 32.5 16.5973Z" fill="#2E7D32"/>
</g>
<defs>
<clipPath id="clip0_2_3369">
<rect width="32" height="32" fill="white" transform="translate(0.5 0.5)"/>
</clipPath>
</defs>
</svg>
