<svg width="33" height="33" viewBox="0 0 33 33" fill="none" xmlns="http://www.w3.org/2000/svg">
<path d="M16.5 3.38267C20.772 3.38267 21.2787 3.39867 22.9653 3.476C24.7093 3.556 26.5053 3.95333 27.776 5.224C29.0587 6.50667 29.444 8.28533 29.524 10.0347C29.6013 11.7213 29.6173 12.228 29.6173 16.5C29.6173 20.772 29.6013 21.2787 29.524 22.9653C29.4453 24.7 29.0387 26.5133 27.776 27.776C26.4933 29.0587 24.716 29.444 22.9653 29.524C21.2787 29.6013 20.772 29.6173 16.5 29.6173C12.228 29.6173 11.7213 29.6013 10.0347 29.524C8.31333 29.4453 6.476 29.0293 5.224 27.776C3.948 26.5 3.556 24.704 3.476 22.9653C3.39867 21.2787 3.38267 20.772 3.38267 16.5C3.38267 12.228 3.39867 11.7213 3.476 10.0347C3.55467 8.30667 3.96533 6.48267 5.224 5.224C6.504 3.944 8.28933 3.556 10.0347 3.476C11.7213 3.39867 12.228 3.38267 16.5 3.38267ZM16.5 0.5C12.1547 0.5 11.6093 0.518667 9.90267 0.596C7.42933 0.709333 4.97333 1.39733 3.18533 3.18533C1.39067 4.98 0.709333 7.43067 0.596 9.90267C0.518667 11.6093 0.5 12.1547 0.5 16.5C0.5 20.8453 0.518667 21.3907 0.596 23.0973C0.709333 25.568 1.4 28.0307 3.18533 29.8147C4.97867 31.608 7.43333 32.2907 9.90267 32.404C11.6093 32.4813 12.1547 32.5 16.5 32.5C20.8453 32.5 21.3907 32.4813 23.0973 32.404C25.5693 32.2907 28.028 31.6013 29.8147 29.8147C31.6107 28.0187 32.2907 25.5693 32.404 23.0973C32.4813 21.3907 32.5 20.8453 32.5 16.5C32.5 12.1547 32.4813 11.6093 32.404 9.90267C32.2907 7.42933 31.6013 4.972 29.8147 3.18533C28.024 1.39467 25.5627 0.708 23.0973 0.596C21.3907 0.518667 20.8453 0.5 16.5 0.5Z" fill="#2E7D32"/>
<path d="M16.5 8.284C11.9627 8.284 8.284 11.9627 8.284 16.5C8.284 21.0373 11.9627 24.716 16.5 24.716C21.0373 24.716 24.716 21.0373 24.716 16.5C24.716 11.9627 21.0373 8.284 16.5 8.284ZM16.5 21.8333C13.5547 21.8333 11.1667 19.4453 11.1667 16.5C11.1667 13.5547 13.5547 11.1667 16.5 11.1667C19.4453 11.1667 21.8333 13.5547 21.8333 16.5C21.8333 19.4453 19.4453 21.8333 16.5 21.8333Z" fill="#2E7D32"/>
<path d="M25.0413 9.87867C26.1017 9.87867 26.9613 9.01905 26.9613 7.95867C26.9613 6.89828 26.1017 6.03867 25.0413 6.03867C23.9809 6.03867 23.1213 6.89828 23.1213 7.95867C23.1213 9.01905 23.9809 9.87867 25.0413 9.87867Z" fill="#2E7D32"/>
</svg>
