<svg width="91" height="86" viewBox="0 0 91 86" fill="none" xmlns="http://www.w3.org/2000/svg">
<g clip-path="url(#clip0_93_708)">
<path d="M73.9703 69.468C89.4503 54.5022 89.4503 30.238 73.9702 15.2723C58.4902 0.306518 33.392 0.306523 17.912 15.2723C2.43189 30.238 2.43189 54.5022 17.912 69.468C33.392 84.4337 58.4902 84.4337 73.9703 69.468Z" fill="#D9D9D9"/>
<path d="M45.9343 55.3647C54.4498 55.3647 61.3529 46.7356 61.3529 36.0911C61.3529 25.4467 54.4498 16.8176 45.9343 16.8176C37.4188 16.8176 30.5156 25.4467 30.5156 36.0911C30.5156 46.7356 37.4188 55.3647 45.9343 55.3647Z" fill="#00834C"/>
<path d="M45.937 56.7969C33.0402 56.7969 21.6859 60.6078 15.0508 66.3833C22.3163 75.1058 33.4503 80.692 45.937 80.692C58.4238 80.692 69.5577 75.1058 76.8233 66.3833C70.1943 60.6078 58.84 56.7969 45.937 56.7969Z" fill="#00834C"/>
<path d="M47.6648 42.3701H44.2126C40.9605 42.3701 38.3242 44.9188 38.3242 48.0628V61.0164C38.3242 64.1604 40.9605 66.7091 44.2126 66.7091H47.6648C50.9168 66.7091 53.5531 64.1604 53.5531 61.0164V48.0628C53.5531 44.9188 50.9168 42.3701 47.6648 42.3701Z" fill="#00834C"/>
<path d="M32.6497 36.9856C33.5494 39.4829 33.1883 41.8736 31.8539 42.3233C30.5196 42.773 28.7078 41.1102 27.808 38.613C26.9082 36.1158 27.2693 33.7251 28.6037 33.2753C29.9381 32.8256 31.7499 34.4884 32.6497 36.9856Z" fill="#00834C"/>
<path d="M59.2338 36.9856C58.334 39.4829 58.6951 41.8736 60.0295 42.3233C61.3639 42.773 63.1757 41.1102 64.0754 38.613C64.9752 36.1158 64.6141 33.7251 63.2797 33.2753C61.9453 32.8256 60.1336 34.4884 59.2338 36.9856Z" fill="#00834C"/>
<path d="M32.4406 36.9017C30.439 33.3808 28.3763 29.6409 28.4803 25.6169C28.5844 21.5989 31.7489 17.356 35.905 17.498C36.6273 17.5217 37.3557 17.6755 38.078 17.5809C39.5164 17.3856 40.5814 16.2494 41.7444 15.4091C44.3764 13.5214 48.0367 13.0776 51.0727 14.267C52.9457 15.0067 54.5311 16.2967 56.3612 17.137C59.7645 18.6993 63.9634 18.5395 67.2259 16.711C66.5465 17.9477 65.3957 18.936 64.043 19.4449C65.2917 19.8295 66.6689 19.794 67.8931 19.3443C67.1586 20.6343 65.9344 21.664 64.5143 22.1906C65.5671 22.2616 66.626 22.3327 67.6788 22.4037C66.7791 23.6345 65.4937 24.5991 64.0308 25.1376C64.8571 25.1613 65.6834 25.1908 66.5097 25.2145C65.8915 26.978 64.294 28.3922 62.421 28.8242C62.9535 28.8301 63.486 28.8361 64.0185 28.8479C62.2741 31.2859 60.5235 33.724 58.779 36.162C58.2771 36.8603 57.7629 37.5704 57.0223 38.032C56.4102 38.4107 55.6879 38.5882 54.9779 38.7421C49.7996 39.8664 44.4438 40.2037 39.1614 39.7362C37.3557 39.5765 35.4643 39.2924 34.0259 38.2154C32.5875 37.1384 31.8224 35.0436 32.8078 33.576" fill="#00834C"/>
<path d="M36.0007 60.4367C36.117 58.4129 36.3741 56.4009 36.7781 54.4126C37.8125 55.5547 39.5692 55.6967 41.1362 55.7618C43.5111 55.8565 45.886 55.9512 48.2671 56.0399C48.5425 57.6081 48.7384 59.4484 47.5632 60.5669C47.0184 61.0817 46.2717 61.3421 45.5371 61.5373C43.9335 61.9693 42.2747 62.1942 40.6159 62.2001C38.645 62.212 36.2945 61.6379 35.6641 59.8331C35.8783 59.6615 36.0925 59.4958 36.3068 59.3242" fill="#00834C"/>
<path d="M55.8784 60.4367C55.7621 58.4129 55.505 56.4009 55.1011 54.4126C54.0666 55.5547 52.3099 55.6967 50.743 55.7618C48.368 55.8565 45.9931 55.9512 43.6121 56.0399C43.3366 57.6081 43.1407 59.4484 44.316 60.5669C44.8607 61.0817 45.6075 61.3421 46.342 61.5373C47.9457 61.9693 49.6045 62.1942 51.2632 62.2001C53.2342 62.212 55.5846 61.6379 56.2151 59.8331C56.0008 59.6615 55.7866 59.4958 55.5724 59.3242" fill="#00834C"/>
</g>
<defs>
<clipPath id="clip0_93_708">
<rect width="91" height="86" fill="white"/>
</clipPath>
</defs>
</svg>
